<?xml version="1.0" encoding="iso-8859-1"?>
<!-- Generator: Adobe Illustrator 19.0.0, SVG Export Plug-In . SVG Version: 6.00 Build 0)  -->
<svg version="1.1" id="Layer_1" xmlns="http://www.w3.org/2000/svg" xmlns:xlink="http://www.w3.org/1999/xlink" x="0px" y="0px"
	 viewBox="0 0 512 512" style="enable-background:new 0 0 512 512;" xml:space="preserve">
<g>
	<g>
		<polygon points="400.614,221.517 309.779,203.963 265.004,122.99 220.23,203.963 129.393,221.517 192.554,289.127 181.18,380.948 
			265.004,341.757 348.824,380.948 337.453,289.127 		"/>
	</g>
</g>
<g>
	<g>
		<polygon points="193.883,59.399 148.465,50.619 126.077,10.134 103.689,50.619 58.273,59.399 89.852,93.203 84.165,139.113 
			126.077,119.518 167.987,139.113 162.301,93.203 		"/>
	</g>
</g>
<g>
	<g>
		<polygon points="431.388,75.32 395.04,68.294 377.125,35.896 359.21,68.294 322.862,75.32 348.135,102.373 343.584,139.113 
			377.125,123.432 410.664,139.113 406.116,102.373 		"/>
	</g>
</g>
<g>
	<g>
		<polygon points="193.469,436.495 157.121,429.47 139.205,397.071 121.289,429.47 84.942,436.495 110.214,463.55 105.664,500.289 
			139.205,484.607 172.745,500.289 168.195,463.55 		"/>
	</g>
</g>
<g>
	<g>
		<polygon points="512,295.803 486.452,290.865 473.859,268.092 461.268,290.865 435.719,295.803 453.482,314.819 450.284,340.642 
			473.859,329.62 497.433,340.642 494.236,314.819 		"/>
	</g>
</g>
<g>
	<g>
		<polygon points="371.229,457.027 345.68,452.088 333.088,429.316 320.495,452.088 294.946,457.027 312.711,476.043 
			309.513,501.866 333.088,490.843 356.662,501.866 353.464,476.043 		"/>
	</g>
</g>
<g>
	<g>
		<polygon points="93.232,253.593 62.007,247.558 46.616,219.725 31.226,247.558 0,253.593 21.712,276.835 17.802,308.398 
			46.616,294.926 75.429,308.398 71.521,276.835 		"/>
	</g>
</g>
<g>
</g>
<g>
</g>
<g>
</g>
<g>
</g>
<g>
</g>
<g>
</g>
<g>
</g>
<g>
</g>
<g>
</g>
<g>
</g>
<g>
</g>
<g>
</g>
<g>
</g>
<g>
</g>
<g>
</g>
</svg>
